<svg t="1675069767795" class="icon" viewBox="0 0 1024 1024" version="1.1" xmlns="http://www.w3.org/2000/svg" p-id="23455" width="200" height="200"><path d="M512 102.4c226.2016 0 409.6 183.3984 409.6 409.6s-183.3984 409.6-409.6 409.6S102.4 738.2016 102.4 512 285.7984 102.4 512 102.4z m0 68.266667C323.4816 170.666667 170.666667 323.4816 170.666667 512s152.814933 341.333333 341.333333 341.333333 341.333333-152.814933 341.333333-341.333333S700.5184 170.666667 512 170.666667z" fill="#0E87F7" p-id="23456"></path><path d="M477.866667 238.933333l-5.12 0.170667A68.266667 68.266667 0 0 0 409.6 307.2v102.365867L307.2 409.6a68.266667 68.266667 0 0 0-68.266667 68.266667v68.266666l0.170667 5.12A68.266667 68.266667 0 0 0 307.2 614.4l102.4-0.034133V716.8a68.266667 68.266667 0 0 0 68.266667 68.266667h68.266666l5.12-0.170667A68.266667 68.266667 0 0 0 614.4 716.8v-102.468267L716.8 614.4a68.266667 68.266667 0 0 0 68.266667-68.266667v-68.266666l-0.170667-5.12A68.266667 68.266667 0 0 0 716.8 409.6l-102.4-0.034133V307.2a68.266667 68.266667 0 0 0-68.266667-68.266667h-68.266666z m0 68.266667h68.266666v136.4992a34.133333 34.133333 0 0 0 34.133334 34.133333L716.8 477.866667v68.266666l-136.533333-0.034133a34.133333 34.133333 0 0 0-34.133334 34.133333V716.8h-68.266666v-136.567467l-0.238934-3.9936A34.133333 34.133333 0 0 0 443.733333 546.133333L307.2 546.133333v-68.266666l136.533333-0.034134a34.133333 34.133333 0 0 0 34.133334-34.133333V307.2z" fill="#BD1B2D" p-id="23457"></path></svg>