<svg t="1675069614143" class="icon" viewBox="0 0 1024 1024" version="1.1" xmlns="http://www.w3.org/2000/svg" p-id="11134" width="200" height="200"><path d="M627.597554 512H904.212016c0 145.160811-78.857865 271.908286-196.082472 339.70014L569.805428 612.118032c34.552888-19.981037 57.792125-57.343918 57.792126-100.118032z m-173.407076 100.118032L315.866363 851.70014C198.654035 783.908286 119.787984 657.161834 119.787984 512h276.611392c0 42.774114 23.241284 80.136995 57.791102 100.118032z m57.807475-182.688444v0.00307c-45.60048 0-82.568366 36.94742-82.568365 82.567342 0 45.624016 36.966863 82.570412 82.568365 82.570412 45.599456 0 82.570412-36.946396 82.570413-82.570412 0.001023-45.618899-36.970956-82.570412-82.570413-82.570412z m0-309.642627c71.455282 0 138.434632 19.118391 196.130568 52.518016L569.805428 411.886061c-17.000152-9.869769-36.740712-15.481569-57.806451-15.481568-21.058576 0-40.802206 5.6118-57.808499 15.481568L315.866363 172.304977c57.695935-33.403717 124.680401-52.513923 196.132614-52.513923v-0.004093z" fill="#F08B2C" p-id="11135"></path><path d="M824.365639 199.636407C744.430235 119.705097 633.991158 70.24369 511.997953 70.24369c-121.987065 0-232.430235 49.461406-312.368709 129.392717-79.942567 79.926194-129.384531 190.365272-129.38453 312.363593 0 122.002414 49.446057 232.440468 129.38453 312.367686 79.938474 79.930287 190.377551 129.392717 312.368709 129.392717 121.993205 0 232.432282-49.46243 312.367686-129.392717 79.94666-79.926194 129.388624-190.365272 129.388624-312.367686 0.001023-121.998321-49.441963-232.437399-129.388624-312.363593zM511.997953 20.70042c135.665571 0 258.490722 54.994412 347.399481 143.882703C948.306192 253.513371 1003.297534 376.338522 1003.297534 512c0 135.666595-54.993388 258.494816-143.899077 347.42097-88.909781 88.889315-211.733909 143.878611-347.39948 143.87861-135.662501 0-258.487652-54.988272-347.396411-143.87861C75.692785 770.491746 20.702466 647.666595 20.702466 512c0-135.661478 54.990319-258.487652 143.9001-347.415853C253.510301 75.694832 376.336475 20.704513 511.997953 20.704513v-0.004093z" fill="#F08B2C" p-id="11136"></path></svg>