<svg t="1675069637490" class="icon" viewBox="0 0 1024 1024" version="1.1" xmlns="http://www.w3.org/2000/svg" p-id="11290" width="200" height="200"><path d="M395.651341 794.319383c4.584403 17.916009 9.629292 34.797458 15.064061 50.594204 27.475717 79.995779 63.426438 129.475605 101.268225 129.475604 37.878627 0 73.830371-49.480849 101.305065-129.475604 5.437838-15.79777 10.479658-32.716057 15.068153-50.632066 9.904561 3.390207 19.805029 6.663757 29.708567 9.708086-4.700036 17.956941-9.749019 34.913091-15.22165 50.790678-31.903554 92.939553-78.071967 150.435944-130.860135 150.435944-52.751329 0-98.918719-57.49639-130.826366-150.435944-5.469561-15.880657-10.556406-32.833737-15.219603-50.749746a1124.908023 1124.908023 0 0 0 29.70959-9.712179h0.004093v0.001023z m-22.584323-121.769101a1136.686253 1136.686253 0 0 0 4.161778 30.134261c-9.978239 3.582588-19.999456 7.013727-30.018627 10.212575a1174.380685 1174.380685 0 0 1-7.93777-61.345037 1471.549235 1471.549235 0 0 0 33.79155 20.998201h0.003069zM253.150098 471.790287a1177.198865 1177.198865 0 0 1 49.901427-37.453956 1504.411624 1504.411624 0 0 0-1.541096 39.268274 1110.591997 1110.591997 0 0 0-24.394548 18.611856 966.261086 966.261086 0 0 1-23.96783-20.425151h0.002047v-0.001023z m189.161866 204.925866a1284.0881 1284.0881 0 0 0 35.220082-15.993221 1448.872814 1448.872814 0 0 1-62.30899-34.988815c-104.312555-61.884319-190.279314-130.786457-246.308286-193.670544-56.530391-63.506256-82.039317-118.917152-63.12047-151.28324 18.959779-32.332318 80.383611-38.267482 164.426558-21.694048 16.568318 3.236711 33.948115 7.398489 51.980781 12.40347a1129.952912 1129.952912 0 0 1 6.281041-30.247847c-18.072575-4.971212-35.488188-9.128896-52.175209-12.407563-97.566934-19.191046-171.089291-8.515937-197.483375 36.527865-26.396131 45.085758 1.002838 113.216325 66.663149 186.931063 60.112979 67.509422 152.90313 141.34184 265.074661 206.502778 10.480681 6.126522 21.076996 12.060663 31.750058 17.920102z m273.362401 111.28535c-51.058784-12.640876-107.895143-32.408043-167.430979-58.764264a1533.246289 1533.246289 0 0 0 35.297854-18.341704c48.859703 20.496782 95.525443 36.219851 137.988472 46.816165-3.812831 8.515937-5.897302 17.957965-5.897302 27.858432 0.004093 0.812503 0 1.621937 0.041955 2.431371z m229.506656-29.404645c26.398177-45.081664-1.001815-113.1713-66.663149-186.886037-50.248327-56.453644-117.145813-111.247488-190.32127-160.03249-2.578726-35.068633-6.431467-68.743526-11.44361-100.613311a1009.350378 1009.350378 0 0 0-29.976672 10.250437 1158.472399 1158.472399 0 0 1 8.319463 69.014702c-35.255898-22.119743-71.596498-42.695319-107.895143-61.34606 75.065499-34.297062 146.127833-58.033625 206.581572-69.898837 178.836727-35.222129 224.693033 34.447488 101.306088 172.977287-11.176528 12.523196-23.504273 25.276636-36.915697 38.146733a917.080066 917.080066 0 0 1 23.353847 20.425151c13.408354-12.911029 25.780102-25.743263 36.990399-38.342184 143.501011-161.112076 77.1469-264.381884-130.82432-223.458928-68.589007 13.487149-150.123836 41.653596-235.748811 82.65637-31.869785-15.297374-63.4643-28.938018-94.026302-40.614942a803.557773 803.557773 0 0 0-6.009865 30.672519c21.154767 8.207923 42.851885 17.377751 64.813015 27.436831-10.750833 5.547332-21.579438 11.252252-32.407019 17.186393a1466.591326 1466.591326 0 0 0-42.156038 23.928944 1181.92039 1181.92039 0 0 0-3.544726 38.146733 1441.783363 1441.783363 0 0 1 66.124891-38.10887 1353.810929 1353.810929 0 0 1 47.243907-24.42934c49.013199 24.162258 98.685406 52.212048 146.007083 82.964384a1361.212488 1361.212488 0 0 1 2.539841 83.307191c0 28.40283-0.880042 56.182468-2.501979 83.155742a1400.04995 1400.04995 0 0 1-109.671599 64.544909c-101.033889 53.563833-198.71441 89.591302-278.136116 105.237623-84.082856 16.531479-145.502594 10.6352-164.424511-21.656186l-0.039909-0.078794 0.037862 0.004093c-11.867258-20.309518-6.242155-49.747931 13.602782-84.545389-7.974609-3.777016-15.18174-8.902746-21.38501-14.991406-1.157357-1.114378-2.234896-2.273782-3.314482-3.465931-26.896526 46.470288-33.832482 87.781077-15.874517 118.412663 26.433993 45.046872 99.996259 55.724028 197.483375 36.531958 79.882192-15.993221 177.79705-53.330519 278.255842-104.62057 35.105472-17.87917 67.049958-35.837135 100.533493-56.838405a1161.016333 1161.016333 0 0 1-8.319463 69.014702 1024.341784 1024.341784 0 0 0 29.976672 10.251461c5.01112-31.866715 8.906839-65.586633 11.443611-100.689036 29.518232-19.692465 57.153584-39.844394 82.617484-60.036231-7.781205-6.934932-15.793676-13.754231-23.928945-20.459944-17.765583 13.945589-36.604613 27.858432-56.450573 41.615734 0.884135-20.113043 1.350761-40.57708 1.347691-61.386993 0-20.843682-0.463557-41.386513-1.347691-61.537419 63.077491 43.700204 120.460295 91.906016 164.653731 141.498405 56.528345 63.465324 82.042387 118.913059 63.118424 151.246401-10.133781 17.261094-32.363017 27.011136-63.697614 29.822153 0.733709 4.087077 1.159404 8.286717 1.159404 12.561058 0 6.167454-0.846273 12.177319-2.389415 17.88224 44.007195-3.470024 76.260719-18.11146 91.903969-44.855514zM651.092617 194.925115c2.385322 8.128105 4.737898 16.452684 6.934932 25.009553a981.684327 981.684327 0 0 0-29.671727 9.745949 683.963193 683.963193 0 0 0-6.551193-23.888012 84.951641 84.951641 0 0 0 29.287988-10.86749zM511.983627 18.782748c21.15579 0 41.231994 9.211784 59.764033 26.28152a85.128673 85.128673 0 0 0-25.122117 17.189463l-0.659008 0.654915c-11.018939-8.670456-22.386825-13.294768-33.983931-13.294767-37.838718-0.004093-73.794556 49.476756-101.268226 129.472534-29.168262 84.891266-47.24186 202.611152-47.241859 332.893121 0.002047 15.183787 0.269129 30.172123 0.729616 44.969101a1088.127401 1088.127401 0 0 1-31.789967-22.156582c-0.149402-7.548915-0.192381-15.142855-0.192381-22.811496 0.002047-133.559611 18.689627-254.783291 48.936451-342.793588C413.069001 76.238206 459.228205 18.786841 511.983627 18.786841v-0.004093z" fill="#89826C" p-id="11291"></path><path d="M511.983627 419.498421c51.098693 0 92.481113 41.423352 92.481113 92.481113 0.004093 51.098693-41.386513 92.484183-92.481113 92.484183-51.056737-0.00307-92.484183-41.38549-92.484183-92.484183 0.002047-51.057761 41.423352-92.478043 92.484183-92.478043v-0.00307zM607.011744 183.940968c34.526282 0 62.53514-27.586233 62.53514-61.651005 0.00307-34.028956-28.012951-61.654075-62.539233-61.654075-34.525259-0.004093-62.54128 27.625119-62.54128 61.654075 0.00307 34.063749 28.016021 61.651005 62.54128 61.651005h0.004093zM785.651997 831.815294c25.898805 0 46.895983-20.693257 46.895982-46.244138 0-25.543718-21.001271-46.241068-46.895982-46.241068-25.93462 0-46.894959 20.69735-46.89496 46.241068 0 25.550881 20.960339 46.244138 46.89496 46.244138zM152.848895 642.998281c30.247847 0 54.71505-24.124395 54.71505-53.947571 0-29.787361-24.469249-53.947572-54.719143-53.947572-30.208962-0.004093-54.680257 24.159188-54.680258 53.947572 0.002047 29.823176 24.469249 53.947572 54.680258 53.947571h0.004093z" fill="#89826C" p-id="11292"></path></svg>