<svg t="1677572067687" class="icon" viewBox="0 0 1024 1024" version="1.1" xmlns="http://www.w3.org/2000/svg" p-id="9022" width="200" height="200"><path d="M98 98.85l827.99 0 0 618-827.99 0 0-618Z" fill="#01B0F1" p-id="9023"></path><path d="M907 99.85a18 18 0 0 1 18 18v580a18 18 0 0 1-18 18H117a18 18 0 0 1-18-18v-580a18 18 0 0 1 18-18h790m0-2H117a20.06 20.06 0 0 0-20 20v580a20.06 20.06 0 0 0 20 20h790a20.06 20.06 0 0 0 20-20v-580a20.06 20.06 0 0 0-20-20z" fill="#0E6EC5" p-id="9024"></path><path d="M897 127.85l0 560-770 0 0-560 770 0Z" fill="#FFF8B8" p-id="9025"></path><path d="M256.7 877.15l509.95 0 0 48-509.95 0 0-48Z" fill="#01B0F1" p-id="9026"></path><path d="M742.77 878.15A22.9 22.9 0 0 1 765.65 901v0.24a22.9 22.9 0 0 1-22.88 22.88H280.58a22.9 22.9 0 0 1-22.88-22.88V901a22.9 22.9 0 0 1 22.88-22.88h462.19m0-2H280.58A25 25 0 0 0 255.7 901v0.24a25 25 0 0 0 24.88 24.88h462.19a25 25 0 0 0 24.88-24.88V901a25 25 0 0 0-24.88-24.88z" fill="#0E6EC5" p-id="9027"></path><path d="M791.5 701.16m-130 0a130 130 0 1 0 260 0 130 130 0 1 0-260 0Z" fill="#FFBE00" p-id="9028"></path><path d="M732.85 706.16h-8.18v10.95a4.71 4.71 0 0 1-1.26 3.56 4.89 4.89 0 0 1-6.43 0 4.7 4.7 0 0 1-1.23-3.52v-29.8a4.52 4.52 0 0 1 1.35-3.69 6.75 6.75 0 0 1 4.3-1.11h11.46a34 34 0 0 1 7.82 0.69 12.24 12.24 0 0 1 4.68 2.19 10 10 0 0 1 3 3.75 11.77 11.77 0 0 1 1 5q0 5.91-4.15 9t-12.36 2.98z m-2.17-17.73h-6v11.82h6a20.31 20.31 0 0 0 5.28-0.58 6.24 6.24 0 0 0 3.23-1.9 5.18 5.18 0 0 0 1.11-3.46 5.46 5.46 0 0 0-1.71-4.17q-1.92-1.71-7.9-1.71zM765.57 686.64v28.15h18.1a5.22 5.22 0 0 1 3.32 0.92 2.85 2.85 0 0 1 1.16 2.32 2.78 2.78 0 0 1-1.14 2.31 5.37 5.37 0 0 1-3.34 0.88h-21.56a6.26 6.26 0 0 1-4.19-1.13 4.67 4.67 0 0 1-1.28-3.67v-29.78a4.77 4.77 0 0 1 1.22-3.56 4.4 4.4 0 0 1 3.2-1.19 4.57 4.57 0 0 1 3.26 1.17 4.69 4.69 0 0 1 1.25 3.58zM821.4 716.85l-2.1-4.85h-17.92l-2.1 5a16.56 16.56 0 0 1-2.11 3.92 3.58 3.58 0 0 1-2.86 1 4.5 4.5 0 0 1-3-1.08 3.16 3.16 0 0 1-1.29-2.45 4.87 4.87 0 0 1 0.3-1.64q0.3-0.84 1-2.35l11.28-25.12 1.16-2.6a12.59 12.59 0 0 1 1.44-2.52 5.66 5.66 0 0 1 2-1.62 6.89 6.89 0 0 1 3.08-0.62 7 7 0 0 1 3.11 0.62 5.81 5.81 0 0 1 2 1.6 10.9 10.9 0 0 1 1.29 2.1q0.52 1.12 1.34 3l11.52 25a11.36 11.36 0 0 1 1.35 4.14 3.26 3.26 0 0 1-1.28 2.47 4.9 4.9 0 0 1-4.89 0.79 3.64 3.64 0 0 1-1.26-0.9 8 8 0 0 1-1.1-1.74q-0.54-1.25-0.96-2.15z m-17.68-10.74h13.17l-6.64-16zM849.12 686.58l17.17 22.8v-23a4.63 4.63 0 0 1 1.1-3.36 4 4 0 0 1 3-1.12 4.08 4.08 0 0 1 3 1.12 4.59 4.59 0 0 1 1.11 3.36v30.42q0 5.09-4.81 5.09a7.21 7.21 0 0 1-2.17-0.3 5.69 5.69 0 0 1-1.8-1 9.9 9.9 0 0 1-1.56-1.54q-0.72-0.88-1.44-1.81L846 694.74v22.66a4.46 4.46 0 0 1-1.17 3.35 4.15 4.15 0 0 1-3 1.13 4.1 4.1 0 0 1-3-1.15 4.53 4.53 0 0 1-1.14-3.34v-29.83a7.49 7.49 0 0 1 0.48-3 4.46 4.46 0 0 1 1.89-1.94 5.68 5.68 0 0 1 2.86-0.75 5.54 5.54 0 0 1 2.06 0.34 5 5 0 0 1 1.5 0.92 9.79 9.79 0 0 1 1.32 1.5z" fill="#FFFFFF" p-id="9029"></path><path d="M275.89 237.67l289.08 0 0 20-289.08 0 0-20Z" fill="#FFBE00" p-id="9030"></path><path d="M275.89 194.01l520.35 0 0 20-520.35 0 0-20Z" fill="#FFBE00" p-id="9031"></path><path d="M275.89 344.67l289.08 0 0 20-289.08 0 0-20Z" fill="#FFBE00" p-id="9032"></path><path d="M275.89 301.01l520.35 0 0 20-520.35 0 0-20Z" fill="#FFBE00" p-id="9033"></path><path d="M275.89 451.66l289.08 0 0 20-289.08 0 0-20Z" fill="#FFBE00" p-id="9034"></path><path d="M275.89 408l520.35 0 0 20-520.35 0 0-20Z" fill="#FFBE00" p-id="9035"></path><path d="M275.89 558.66l289.08 0 0 20-289.08 0 0-20Z" fill="#FFBE00" p-id="9036"></path><path d="M275.89 515l520.35 0 0 20-520.35 0 0-20Z" fill="#FFBE00" p-id="9037"></path><path d="M267.92 186.94a2 2 0 0 0-2.84 0L241 211l-10-10a1.59 1.59 0 0 0-2.24 0l-0.6 0.6a1.59 1.59 0 0 0 0 2.24l11.67 11.67a1.59 1.59 0 0 0 2.24 0l0.16-0.16 0.16-0.14 25.48-25.48a2 2 0 0 0 0.05-2.79zM267.92 296.76a2 2 0 0 0-2.84 0L241 320.83l-10-10a1.59 1.59 0 0 0-2.24 0l-0.6 0.6a1.59 1.59 0 0 0 0 2.24l11.67 11.67a1.59 1.59 0 0 0 2.24 0l0.16-0.16 0.16-0.14 25.48-25.48a2 2 0 0 0 0.05-2.8zM267.92 399.11a2 2 0 0 0-2.84 0L241 423.18l-10-10a1.59 1.59 0 0 0-2.24 0l-0.6 0.6a1.59 1.59 0 0 0 0 2.24l11.67 11.67a1.59 1.59 0 0 0 2.24 0l0.16-0.16 0.16-0.14L267.92 402a2 2 0 0 0 0-2.89zM267.92 505.92a2 2 0 0 0-2.84 0L241 530l-10-10a1.59 1.59 0 0 0-2.24 0l-0.6 0.6a1.59 1.59 0 0 0 0 2.24l11.67 11.67a1.59 1.59 0 0 0 2.24 0l0.16-0.16 0.16-0.14 25.48-25.48a2 2 0 0 0 0.05-2.81z" fill="#0FCE9A" p-id="9038"></path><path d="M633.979885 475.367225l20.053116 17.704096-64.912814 73.525594-20.053117-17.704096 64.912815-73.525594Z" fill="#0FCE9A" p-id="9039"></path><path d="M625.826 484.611l20.053 17.704-4.898 5.548-20.053-17.704zM564.97 573.45l24.75-8.18-19.52-17.02-5.23 25.2z" fill="#FFBE00" p-id="9040"></path><path d="M623.742 492.653l4.925 4.348-50.954 57.716-4.926-4.349zM632.57 500.444l4.924 4.348-50.954 57.716-4.926-4.348z" fill="#0E6EC5" p-id="9041"></path></svg>